#!OML:ASF X:\für Bonn\!DataBase\2005_08_12_Daniel\c3d\Daniel.ASF
:FULLY-SPECIFIED
:DEGREES
351
root 0.150209 17.3514 -13.4759 172.405 174.657 -179.62
lowerback 22.3159 -0.863019 5.12378
upperback 6.9632 -0.119747 -2.05296
thorax -4.82436 -0.0194199 -5.12805
lowerneck -5.57529 0.60589 -3.52918
upperneck 8.17928 1.031 1.17816
head 3.62056 0.449993 1.06171
rclavicle 1.74931e-014 -2.36554e-014
rhumerus -32.4762 -32.579 -76.5074
rradius 11.5357
rwrist 43.7123
rhand -15.2647 19.6284
rfingers 7.12502
rthumb 10.9095 -10.0682
lclavicle 1.74931e-014 -2.36554e-014
lhumerus -26.3055 23.7978 85.1456
lradius 32.2626
lwrist -17.9579
lhand -10.2475 -8.27005
lfingers 7.12502
lthumb 15.7453 21.1095
rfemur 15.3705 13.009 28.8107
rtibia 16.872
rfoot -27.6816 -14.1871
rtoes -9.57945
lfemur -24.648 -7.97611 -17.1928
ltibia 46.0708
lfoot -13.9373 -1.5103
ltoes -10.4097
352
root 0.145389 17.351 -13.3881 172.481 174.627 -179.583
lowerback 22.123 -0.846341 5.05454
upperback 6.88355 -0.118308 -1.99889
thorax -4.81382 -0.0211854 -5.02725
lowerneck -5.55762 0.643303 -3.47656
upperneck 8.05113 1.08119 1.11049
head 3.57095 0.474881 1.03072
rclavicle -8.44835e-016 7.95139e-016
rhumerus -32.779 -33.0252 -76.1454
rradius 11.4617
rwrist 44.1851
rhand -15.1228 19.608
rfingers 7.12502
rthumb 11.0463 -10.0813
lclavicle -8.44835e-016 7.95139e-016
lhumerus -26.4898 24.0721 84.9671
lradius 31.7641
lwrist -18.5077
lhand -10.1471 -8.06717
lfingers 7.12502
lthumb 15.842 21.3047
rfemur 16.432 13.2859 29.0347
rtibia 15.4837
rfoot -27.4496 -14.61
rtoes -9.44915
lfemur -24.7655 -8.38427 -17.333
ltibia 44.4913
lfoot -13.7625 -1.3222
ltoes -9.96939
353
root 0.140959 17.3508 -13.2975 172.533 174.577 -179.543
lowerback 21.9627 -0.828757 4.99682
upperback 6.80241 -0.112488 -1.96283
thorax -4.82052 -0.021089 -4.95452
lowerneck -5.53114 0.674552 -3.37258
upperneck 7.9531 1.11639 1.06405
head 3.53071 0.494524 0.997212
rclavicle -1.3418e-015 9.14409e-015
rhumerus -33.0669 -33.4429 -75.8111
rradius 11.4177
rwrist 44.5971
rhand -14.8804 19.5337
rfingers 7.12502
rthumb 11.2801 -10.143
lclavicle -1.3418e-015 9.14409e-015
lhumerus -26.6957 24.4017 84.7058
lradius 31.2344
lwrist -19.1609
lhand -10.0696 -7.8459
lfingers 7.12502
lthumb 15.9166 21.52
rfemur 17.6592 13.5226 29.262
rtibia 13.8554
rfoot -27.0715 -15.0995
rtoes -9.47376
lfemur -24.8603 -8.83461 -17.4641
ltibia 42.9444
lfoot -13.675 -1.10454
ltoes -9.81391
354
root 0.13612 17.3519 -13.2047 172.582 174.508 -179.525
lowerback 21.791 -0.813054 4.92874
upperback 6.74781 -0.110143 -1.90131
thorax -4.79289 -0.0210622 -4.84681
lowerneck -5.58651 0.70262 -3.28687
upperneck 7.86434 1.15292 1.00599
head 3.50977 0.513718 0.964194
rclavicle 1.69961e-014 -5.96354e-016
rhumerus -33.3352 -34.04 -75.359
rradius 11.3631
rwrist 45.3165
rhand -14.534 19.4196
rfingers 7.12502
rthumb 11.6142 -10.2385
lclavicle 1.69961e-014 -5.96354e-016
lhumerus -26.8637 24.8298 84.4567
lradius 30.6689
lwrist -19.8598
lhand -10.0556 -7.72628
lfingers 7.12502
lthumb 15.9301 21.6386
rfemur 19.0848 13.7979 29.5395
rtibia 11.8822
rfoot -26.562 -15.6365
rtoes -9.23075
lfemur -24.981 -9.34979 -17.5401
ltibia 41.4605
lfoot -13.7233 -0.827989
ltoes -9.75645
355
root 0.131757 17.3543 -13.1092 172.632 174.411 -179.506
lowerback 21.619 -0.799602 4.87601
upperback 6.68673 -0.107661 -1.84746
thorax -4.77175 -0.0211747 -4.75659
lowerneck -5.62177 0.707928 -3.20245
upperneck 7.78873 1.15747 0.957999
head 3.49036 0.517299 0.933217
rclavicle 2.18663e-015 5.06901e-015
rhumerus -33.5447 -34.5093 -74.9871
rradius 11.31
rwrist 45.9049
rhand -14.0862 19.201
rfingers 7.12502
rthumb 12.046 -10.4323
lclavicle 2.18663e-015 5.06901e-015
lhumerus -27.0569 25.1849 84.1695
lradius 30.118
lwrist -20.4838
lhand -10.0253 -7.58545
lfingers 7.12502
lthumb 15.9593 21.7771
rfemur 20.7066 13.2469 29.5033
rtibia 9.42473
rfoot -25.6583 -15.4155
rtoes -9.18929
lfemur -25.1449 -9.91848 -17.5969
ltibia 40.035
lfoot -13.8694 -0.484378
ltoes -10.3231
